<?xml version="1.0" encoding="utf-8"?>
<!-- Generator: Adobe Illustrator 26.3.1, SVG Export Plug-In . SVG Version: 6.00 Build 0)  -->
<svg version="1.1" id="Laag_1" xmlns="http://www.w3.org/2000/svg" xmlns:xlink="http://www.w3.org/1999/xlink" x="0px" y="0px"
	 viewBox="0 0 1327 307.8" style="enable-background:new 0 0 1327 307.8;" xml:space="preserve">
<style type="text/css">
	.st0{fill:#E6007E;}
</style>
<g>
	<g>
		<path class="st0" d="M425.8,307.8h24.6L579.7,0h-24.6L425.8,307.8z"/>
	</g>
</g>
<g>
	<polygon points="399.8,15.7 384.3,0 247.6,138.2 247.4,138 231.7,153.9 248.7,171.1 254.1,176.1 384.3,307.8 399.8,292.1 
		263.1,153.9 	"/>
	<polygon points="186.5,142.5 104.9,142.5 87.8,142.5 22.8,142.5 22.8,0 0,0 0,307.8 22.8,307.8 22.8,165.3 88.5,165.3 105.6,165.3 
		186.5,165.3 186.5,307.8 209.3,307.8 209.3,0 186.5,0 	"/>
</g>
<g>
	<path d="M634.6,94.5h-36.3v146.8h36.3c20.7,0,38.7-7.1,53.4-21.2c14.7-14.1,22.2-31.7,22.2-52.1s-7.5-38-22.2-52.1
		C673.3,101.7,655.3,94.5,634.6,94.5z M702.2,167.9c0,18.2-6.7,33.8-19.8,46.3c-13.2,12.6-29.3,18.9-47.8,18.9h-28.1V102.6h28.1
		c18.5,0,34.6,6.4,47.8,19C695.6,134.1,702.2,149.7,702.2,167.9z"/>
	<rect x="744.8" y="94.5" width="8.1" height="146.8"/>
	<path d="M853.3,172.2h62.2c-0.8,18.1-6.6,33.3-17.2,45.1c-11.1,12.4-25.7,18.6-43.3,18.6c-17.6,0-32.1-6.3-43.3-18.6
		c-11.4-12.8-17.3-29.3-17.3-49.2c0-19.8,5.8-36.3,17.3-49.1c11.1-12.4,25.7-18.7,43.3-18.7c9.3,0,18.3,1.9,26.8,5.5
		c8.5,3.7,16,8.9,22.4,15.7l1.2,1.3l6-5.5l-1.3-1.3c-7.2-7.6-15.7-13.5-25.2-17.7c-9.5-4.1-19.6-6.2-30-6.2
		c-19.9,0-36.5,7.2-49.3,21.4c-12.8,14.3-19.3,32.6-19.3,54.5c0,21.9,6.5,40.3,19.3,54.6c12.8,14.2,29.4,21.3,49.3,21.3
		c19.9,0,36.5-7.2,49.2-21.3c12.9-14.3,19.4-32.7,19.4-54.6V164h-70.4V172.2z"/>
	<rect x="957.3" y="94.5" width="8.1" height="146.8"/>
	<polygon points="1099.2,94.5 995.2,94.5 995.2,102.6 1043.2,102.6 1043.2,241.3 1051.3,241.3 1051.3,102.6 1099.2,102.6 	"/>
	<polygon points="1092.1,241.3 1100.9,241.3 1156.9,109.7 1212.4,240.2 1212.9,241.3 1221.7,241.3 1156.9,89 	"/>
	<polygon points="1251.2,233.1 1251.2,94.5 1243,94.5 1243,241.3 1327,241.3 1327,233.1 	"/>
</g>
</svg>
