<?xml version="1.0" encoding="UTF-8"?>
<svg id="Laag_1" data-name="Laag 1" xmlns="http://www.w3.org/2000/svg" viewBox="0 0 640 128.93">
  <defs>
    <style>
      .cls-1 {
        fill: #fff;
      }

      .cls-1, .cls-2 {
        stroke-width: 0px;
      }

      .cls-2 {
        fill: #ed1e79;
      }
    </style>
  </defs>
  <path class="cls-1" d="M259.74,127.88V62.79c5.99-.47,14.82-.85,26.51-.85,24.33,0,38.01,10.45,38.01,31.64,0,26.61-19.86,35.35-44.57,35.35-5.8,0-13.59-.38-19.96-1.04ZM284.73,114.68c12.64,0,18.05-8.08,18.05-20.53,0-10.36-6.56-18.25-19.1-18.25-1.05,0-2.57.1-3.99.1v38.2c1.71.29,3.52.48,5.04.48Z"/>
  <path class="cls-1" d="M333.15,64.78h19.64v64.15h-19.64v-64.15Z"/>
  <path class="cls-1" d="M361.68,96.95c0-23.29,16.83-35.16,36.94-35.16,12.53,0,18.61,3.27,23.75,7.76l-4.21,13-6.36-2.43c-5.33-2.06-8.51-3.09-13.28-3.09-11.69,0-15.99,9.07-15.99,17.95,0,13.93,8.14,19.45,18.8,19.45,1.12,0,2.25-.09,3.46-.19v-3.93c0-4.86-.19-7.2-1.12-11.41l-.65-3.18,17.58-2.53h2.71v32.26c-7.2,2.34-17.86,3.46-24.5,3.46-19.64,0-37.13-8.04-37.13-31.98Z"/>
  <path class="cls-1" d="M434.16,64.78h19.64v64.15h-19.64v-64.15Z"/>
  <path class="cls-1" d="M482.42,79.27h-20.48v-14.5h60.5v14.5h-20.38v49.66h-19.64v-49.66Z"/>
  <path class="cls-1" d="M540.03,65.15l24.22-1.12,3.83,12.34,17.77,52.55h-20.11l-3.65-11.13h-21.32l-3.55,11.13h-18.89l21.69-63.78ZM557.79,104.33l-6.45-19.82-6.27,19.82h12.72Z"/>
  <path class="cls-1" d="M593.15,64.78h19.64v49.28h27.21v14.87h-46.85v-64.15Z"/>
  <polygon class="cls-1" points="193.31 0 158.99 0 127.16 51.5 113.35 51.68 113.35 0 80.19 0 80.19 51.12 33.16 51.12 33.16 0 0 0 0 128.93 33.16 128.93 33.16 77.06 80.19 77.06 80.19 128.93 113.35 128.93 113.35 75.93 126.44 75.85 127.71 77.75 160.86 128.93 193.4 128.93 154.9 64.46 193.31 0"/>
  <polygon class="cls-2" points="225.85 0 221.99 15.49 203.28 90.69 193.77 128.93 227.87 128.93 259.95 0 225.85 0"/>
</svg>